<?xml version="1.0" standalone="no"?>
<!DOCTYPE svg PUBLIC "-//W3C//DTD SVG 20010904//EN"
 "http://www.w3.org/TR/2001/REC-SVG-20010904/DTD/svg10.dtd">
<svg version="1.0" xmlns="http://www.w3.org/2000/svg"
 width="1018.000000pt" height="687.000000pt" viewBox="0 0 1018.000000 687.000000"
 preserveAspectRatio="xMidYMid meet">

<g transform="translate(0.000000,687.000000) scale(0.100000,-0.100000)"
fill="#000000" stroke="none">
<path d="M7770 6829 c-503 -4 -1230 -12 -1615 -18 -814 -13 -2278 -38 -2740
-46 -826 -15 -1586 -25 -2315 -31 -842 -7 -835 -7 -860 -53 -34 -64 14 -151
82 -151 50 0 970 18 1513 30 676 15 1601 38 2204 55 283 8 517 13 520 10 2 -3
-5 -12 -17 -21 -78 -54 -1462 -1127 -1770 -1371 l-143 -114 -532 327 c-293
180 -755 466 -1028 635 -272 169 -507 311 -521 314 -30 8 -82 -16 -98 -44 -5
-11 -10 -35 -10 -55 0 -64 -128 19 1367 -887 l672 -407 -212 -168 c-648 -514
-1603 -1292 -1657 -1350 l-35 -37 50 27 c85 45 832 584 1572 1133 l421 313
714 -428 c392 -235 937 -560 1210 -722 274 -162 497 -297 497 -300 0 -3 -37
-32 -82 -65 -123 -90 -1497 -1113 -1771 -1318 -225 -169 -240 -178 -264 -167
-60 27 -1522 818 -2277 1231 -87 48 -125 50 -166 10 -39 -40 -40 -92 -2 -130
33 -32 1019 -553 2026 -1071 163 -84 297 -156 297 -159 -1 -3 -441 -336 -978
-739 -908 -680 -1146 -862 -1128 -862 14 0 303 194 551 370 138 97 405 286
595 420 190 134 508 360 707 502 l362 258 613 -312 c684 -347 1895 -949 2032
-1009 205 -90 88 -13 -419 273 -574 325 -1183 660 -1800 993 -110 59 -219 118
-242 132 l-43 24 388 277 c213 153 621 447 907 653 286 206 591 427 679 490
87 63 161 113 165 112 3 -1 175 -101 381 -223 548 -325 1906 -1123 1967 -1156
29 -16 53 -32 53 -35 0 -4 -35 -35 -77 -70 -301 -248 -1539 -1303 -1691 -1440
-63 -58 -119 -120 -92 -104 119 70 877 647 1659 1263 321 254 345 270 365 257
33 -21 1795 -1049 1941 -1133 135 -77 265 -145 265 -138 0 16 -743 485 -1820
1151 -168 103 -309 191 -313 195 -9 8 915 747 1790 1433 174 136 255 206 259
223 7 28 7 28 45 8 48 -24 45 -9 -5 27 -25 17 -48 40 -51 50 -6 17 -61 49 -85
49 -7 0 -182 104 -389 232 -342 211 -1267 767 -1684 1013 l-169 100 29 22 c28
23 1657 1188 1941 1388 84 60 162 119 172 133 30 37 26 88 -9 123 -54 54 -76
46 -283 -103 -268 -192 -1058 -764 -1566 -1135 -244 -178 -448 -323 -453 -323
-12 0 -1272 741 -1917 1126 -389 233 -430 255 -462 250 -47 -7 -80 -46 -80
-95 0 -68 -74 -20 965 -616 281 -160 688 -392 905 -515 217 -122 408 -230 423
-240 l29 -17 -489 -359 c-268 -197 -731 -538 -1027 -757 l-539 -398 -121 73
c-67 41 -608 370 -1204 733 -595 362 -1079 662 -1075 666 18 16 1216 914 1563
1172 206 153 380 288 387 300 17 30 16 68 -2 94 -8 12 -12 24 -8 26 5 3 55 5
113 6 244 3 2182 69 3420 116 360 14 781 30 935 35 276 11 483 24 491 33 2 2
-57 7 -132 10 -152 8 -425 7 -1774 -4z m-67 -2008 c492 -275 1476 -813 1897
-1039 47 -25 93 -51 103 -57 16 -11 -16 -40 -270 -246 -525 -425 -1023 -834
-1465 -1201 l-287 -239 -528 324 c-440 270 -989 605 -1711 1045 -68 41 -120
78 -115 82 4 4 368 268 808 585 440 318 904 654 1030 746 127 92 231 168 233
168 2 1 139 -75 305 -168z"/>
<path d="M9856 6574 c-24 -25 -26 -34 -26 -108 0 -203 86 -1766 150 -2746 53
-803 158 -2226 189 -2575 5 -55 9 226 10 715 1 858 4 758 -69 2370 -34 745
-64 1505 -80 1979 -6 178 -15 332 -21 342 -28 54 -109 66 -153 23z"/>
<path d="M38 6211 l-33 -29 3 -94 c22 -760 173 -3069 312 -4778 22 -267 44
-546 50 -620 14 -184 32 -320 42 -320 28 0 -14 1245 -107 3240 -62 1325 -72
1549 -90 2080 -9 266 -21 477 -27 493 -12 31 -54 57 -92 57 -14 0 -40 -13 -58
-29z"/>
<path d="M9405 399 c-1967 -52 -3467 -100 -5230 -169 -1197 -47 -3056 -126
-3320 -141 -544 -31 -258 -41 825 -29 1353 15 2029 28 4550 85 1707 39 2253
50 3229 66 440 7 672 14 685 21 31 16 36 28 36 90 0 88 -1 88 -260 86 -118 0
-350 -5 -515 -9z"/>
</g>
</svg>
